<svg xmlns="http://www.w3.org/2000/svg" version="1.1" xmlns:xlink="http://www.w3.org/1999/xlink" xmlns:svgjs="http://svgjs.dev/svgjs" viewBox="0 0 13.938269853359733 5.67382686350858"><g transform="matrix(0.7763678481812936,0,0,0.7763678481812936,6.054058705621497,2.089368574578041)"><rect width="15.572611246432093" height="15.572611246432093" x="-6.607642411953483" y="-6.823431054250529" fill="#ffffff"></rect><g clip-path="url(#SvgjsClipPath4691)"><g clip-path="url(#SvgjsClipPath46862a2264f6-7b47-4b87-83cd-0b9f7012f7f8)"><path d=" M -3.0112527968399454 2.3334127293848606 L -3.0112527968399454 1.4678645995232271 C -3.0112527968399454 0.9704666579653627 -3.208843359774038 0.49344084113294784 -3.5605568171978357 0.1417273837091504 C -3.91227027462163 -0.20998607371464373 -4.389296091454048 -0.4075766366487332 -4.886694033011909 -0.4075766366487332 L -4.973648838101483 -0.4075766366487332 C -4.972598235310099 -0.7657343700855257 -4.682515041934396 -1.0558175634612224 -4.324357308497617 -1.0568681662525932 L -1.0496393488242162 -1.0568681662525932 C -0.6914816153874366 -1.055817563461216 -0.4013984220117406 -0.7657343700855193 -0.40034781922036 -0.4075766366487332 L -0.4873026243099332 -0.4075766366487332 C -0.9846925702646376 -0.407576637183407 -1.461709447973183 -0.20998329919044967 -1.813409097904683 0.1417326580461875 C -2.1651087478361832 0.4934486152828279 -2.3626799682235626 0.9704746541031937 -2.362656905676801 1.4678645995232271 L -2.362656905676801 2.3334127293848606 L -0.40069563844071876 2.3334127293848606 C -0.4017462412321029 2.69157046282165 -0.691829434607806 2.9816536561973437 -1.0499871680445887 2.982704258988717 L -4.324705127717982 2.982704258988717 C -4.682862861154768 2.9816536561973366 -4.972946054530461 2.69157046282164 -4.973996657321842 2.3334127293848574 Z M -3.1966404412909206 -0.4075766366487332 C -2.9934500864058444 -0.22437916960859883 -2.8212294553553265 -0.00952181966884691 -2.686650509440562 0.22867167219169215 C -2.552071563525798 -0.00952181966885024 -2.3798509324752763 -0.22437916960859883 -2.1766605775902 -0.4075766366487332 Z M -2.0590976811090975 1.4678645995232302 L -2.0590976811090975 2.0305491432578724 L -0.40000000000000036 2.0305491432578724 L -0.40000000000000036 -0.10471305052174495 L -0.48695480508957445 -0.10471305052174495 C -1.3554315009760685 -0.1046650285865941 -2.0594455016571285 0.5993879023090611 -2.0594455003294567 1.467864599523224 Z M -1.0492045747987704 1.3809097944336535 L -1.0492045747987704 0.7353573214486451 C -1.2526085996830925 0.8916312561206383 -1.3817792065102554 1.12552456955597 -1.40571927566603 1.3809097944336535 Z M -3.3141163829669367 1.4678645995232302 C -3.3141163829669367 1.0507910751781822 -3.479798195404947 0.6507997965517778 -3.7747137127227033 0.3558842792340249 C -4.0696292300404595 0.060968761916271985 -4.469620508666861 -0.10471305052174162 -4.886694033011909 -0.10471305052174162 L -4.973648838101483 -0.10471305052174162 L -4.973648838101483 2.0305491432578724 L -3.3144642021872994 2.0305491432578724 L -3.3144642021872994 1.4678645995232302 Z M -4.324009489277267 1.3809097944336535 L -3.967494788410008 1.3809097944336535 C -3.9914245689833745 1.1255213980462044 -4.120597300650659 0.8916242370954865 -4.324009489277263 0.7353573214486451 Z" fill="url(#gradient-660fd3fc-759f-4305-a9c3-0a78ddbcda33_0)" transform="matrix(1,0,0,1,0,0)" fill-rule="evenodd"></path></g></g><g><path d=" M 0.08700000000000001 1.1054999999999997 Q 0.075 1.1054999999999997 0.0615 1.1002499999999997 Q 0.048 1.0949999999999998 0.039 1.0852499999999996 Q 0.03 1.0754999999999997 0.03 1.0634999999999997 Q 0.03 1.0574999999999997 0.0315 1.0529999999999997 L 0.34500000000000003 0.03449999999999975 Q 0.35100000000000003 0.016499999999999737 0.3675 0.008249999999999647 Q 0.384 -2.220446049250313e-16 0.4035 -2.220446049250313e-16 Q 0.4245 -2.220446049250313e-16 0.44175000000000003 0.008999999999999675 Q 0.459 0.017999999999999572 0.4635 0.03449999999999975 L 0.7755 1.0529999999999997 Q 0.777 1.0574999999999997 0.777 1.0619999999999996 Q 0.777 1.0739999999999996 0.768 1.0837499999999998 Q 0.759 1.0934999999999997 0.7455 1.0994999999999997 Q 0.732 1.1054999999999997 0.717 1.1054999999999997 Q 0.705 1.1054999999999997 0.6945 1.0994999999999997 Q 0.684 1.0934999999999997 0.681 1.0799999999999996 L 0.6105 0.8489999999999998 L 0.1965 0.8489999999999998 L 0.1275 1.0799999999999996 Q 0.123 1.0934999999999997 0.1125 1.0994999999999997 Q 0.10200000000000001 1.1054999999999997 0.08700000000000001 1.1054999999999997 M 0.2205 0.7634999999999996 L 0.585 0.7634999999999996 L 0.4035 0.1589999999999997 L 0.2205 0.7634999999999996 M 1.2210373535156251 1.1144999999999996 Q 1.134037353515625 1.1144999999999996 1.063537353515625 1.0829999999999997 Q 0.9930373535156249 1.0514999999999997 0.9517873535156249 0.9809999999999997 Q 0.910537353515625 0.9104999999999996 0.910537353515625 0.7934999999999997 L 0.910537353515625 0.3284999999999997 Q 0.910537353515625 0.21299999999999963 0.9517873535156249 0.14249999999999974 Q 0.9930373535156249 0.07199999999999962 1.062787353515625 0.04049999999999976 Q 1.132537353515625 0.008999999999999675 1.219537353515625 0.008999999999999675 Q 1.3155373535156252 0.008999999999999675 1.386037353515625 0.04274999999999962 Q 1.456537353515625 0.07649999999999979 1.495537353515625 0.13499999999999968 Q 1.534537353515625 0.19349999999999967 1.534537353515625 0.26849999999999974 Q 1.534537353515625 0.2969999999999997 1.521037353515625 0.3082499999999997 Q 1.507537353515625 0.3194999999999997 1.485037353515625 0.3194999999999997 Q 1.465537353515625 0.3194999999999997 1.451287353515625 0.31049999999999967 Q 1.437037353515625 0.30149999999999966 1.435537353515625 0.2819999999999997 Q 1.428037353515625 0.2234999999999997 1.402537353515625 0.18299999999999972 Q 1.377037353515625 0.14249999999999974 1.332037353515625 0.12149999999999972 Q 1.287037353515625 0.10049999999999959 1.2210373535156251 0.10049999999999959 Q 1.120537353515625 0.10049999999999959 1.065037353515625 0.1559999999999997 Q 1.0095373535156251 0.2114999999999997 1.0095373535156251 0.3284999999999997 L 1.0095373535156251 0.7934999999999997 Q 1.0095373535156251 0.9104999999999996 1.065037353515625 0.9667499999999997 Q 1.120537353515625 1.0229999999999997 1.2210373535156251 1.0229999999999997 Q 1.321537353515625 1.0229999999999997 1.378537353515625 0.9667499999999997 Q 1.435537353515625 0.9104999999999996 1.435537353515625 0.7934999999999997 L 1.435537353515625 0.6149999999999998 L 1.234537353515625 0.6149999999999998 Q 1.216537353515625 0.6149999999999998 1.206787353515625 0.6014999999999997 Q 1.1970373535156251 0.5879999999999997 1.1970373535156251 0.5714999999999997 Q 1.1970373535156251 0.5564999999999997 1.206787353515625 0.5429999999999997 Q 1.216537353515625 0.5294999999999996 1.234537353515625 0.5294999999999996 L 1.497037353515625 0.5294999999999996 Q 1.515037353515625 0.5294999999999996 1.524787353515625 0.5407499999999997 Q 1.534537353515625 0.5519999999999997 1.534537353515625 0.5684999999999997 L 1.534537353515625 0.7934999999999997 Q 1.534537353515625 0.9104999999999996 1.492537353515625 0.9809999999999997 Q 1.450537353515625 1.0514999999999997 1.380037353515625 1.0829999999999997 Q 1.309537353515625 1.1144999999999996 1.2210373535156251 1.1144999999999996 M 1.783525634765625 1.1054999999999997 Q 1.7640256347656251 1.1054999999999997 1.749025634765625 1.0957499999999998 Q 1.734025634765625 1.0859999999999996 1.734025634765625 1.0664999999999998 L 1.734025634765625 0.04499999999999971 Q 1.734025634765625 0.025499999999999634 1.749025634765625 0.017249999999999766 Q 1.7640256347656251 0.008999999999999675 1.783525634765625 0.008999999999999675 Q 1.801525634765625 0.008999999999999675 1.817275634765625 0.017249999999999766 Q 1.833025634765625 0.025499999999999634 1.833025634765625 0.04499999999999971 L 1.833025634765625 0.5759999999999997 L 2.266525634765625 0.023999999999999577 Q 2.277025634765625 0.008999999999999675 2.298025634765625 0.008999999999999675 Q 2.310025634765625 0.008999999999999675 2.322775634765625 0.016499999999999737 Q 2.335525634765625 0.023999999999999577 2.343775634765625 0.03524999999999978 Q 2.352025634765625 0.046499999999999764 2.352025634765625 0.05999999999999961 Q 2.352025634765625 0.06449999999999978 2.350525634765625 0.07124999999999959 Q 2.349025634765625 0.07799999999999963 2.344525634765625 0.08249999999999957 L 2.022025634765625 0.48299999999999965 L 2.391025634765625 1.0379999999999998 Q 2.397025634765625 1.0469999999999997 2.397025634765625 1.0574999999999997 Q 2.397025634765625 1.0709999999999997 2.388775634765625 1.0822499999999997 Q 2.380525634765625 1.0934999999999997 2.367775634765625 1.1002499999999997 Q 2.355025634765625 1.1069999999999998 2.3400256347656248 1.1069999999999998 Q 2.3295256347656252 1.1069999999999998 2.319775634765625 1.1017499999999998 Q 2.310025634765625 1.0964999999999998 2.302525634765625 1.0859999999999996 L 1.956025634765625 0.5654999999999997 L 1.833025634765625 0.7214999999999997 L 1.833025634765625 1.0664999999999998 Q 1.833025634765625 1.0859999999999996 1.817275634765625 1.0957499999999998 Q 1.801525634765625 1.1054999999999997 1.783525634765625 1.1054999999999997 M 2.868059326171875 1.1054999999999997 Q 2.848559326171875 1.1054999999999997 2.833559326171875 1.0957499999999998 Q 2.818559326171875 1.0859999999999996 2.818559326171875 1.0664999999999998 L 2.818559326171875 0.05699999999999972 Q 2.818559326171875 0.029999999999999583 2.833559326171875 0.01949999999999963 Q 2.848559326171875 0.008999999999999675 2.868059326171875 0.008999999999999675 Q 2.8860593261718748 0.008999999999999675 2.900309326171875 0.0187499999999996 Q 2.914559326171875 0.028499999999999748 2.926559326171875 0.04424999999999968 Q 2.938559326171875 0.05999999999999961 2.947559326171875 0.07799999999999963 L 3.205559326171875 0.5759999999999997 L 3.463559326171875 0.07799999999999963 Q 3.474059326171875 0.05999999999999961 3.4853093261718753 0.04424999999999968 Q 3.496559326171875 0.028499999999999748 3.511559326171875 0.0187499999999996 Q 3.526559326171875 0.008999999999999675 3.543059326171875 0.008999999999999675 Q 3.564059326171875 0.008999999999999675 3.5783093261718752 0.01949999999999963 Q 3.592559326171875 0.029999999999999583 3.592559326171875 0.05699999999999972 L 3.592559326171875 1.0664999999999998 Q 3.592559326171875 1.0859999999999996 3.577559326171875 1.0957499999999998 Q 3.562559326171875 1.1054999999999997 3.543059326171875 1.1054999999999997 Q 3.525059326171875 1.1054999999999997 3.509309326171875 1.0957499999999998 Q 3.493559326171875 1.0859999999999996 3.493559326171875 1.0664999999999998 L 3.493559326171875 0.2234999999999997 L 3.244559326171875 0.6944999999999997 Q 3.235559326171875 0.7109999999999996 3.225059326171875 0.7184999999999997 Q 3.214559326171875 0.7259999999999998 3.204059326171875 0.7259999999999998 Q 3.195059326171875 0.7259999999999998 3.184559326171875 0.7192499999999997 Q 3.174059326171875 0.7124999999999997 3.165059326171875 0.6944999999999997 L 2.917559326171875 0.21899999999999964 L 2.917559326171875 1.0664999999999998 Q 2.917559326171875 1.0859999999999996 2.901809326171875 1.0957499999999998 Q 2.8860593261718748 1.1054999999999997 2.868059326171875 1.1054999999999997 M 4.0905615234375 1.1159999999999997 Q 3.9960615234375 1.1159999999999997 3.9233115234375 1.0799999999999996 Q 3.8505615234375 1.0439999999999996 3.8093115234375 0.9802499999999997 Q 3.7680615234375 0.9164999999999996 3.7680615234375 0.8309999999999997 L 3.7680615234375 0.6629999999999997 Q 3.7680615234375 0.5879999999999997 3.8070615234375 0.5249999999999997 Q 3.8460615234375 0.46199999999999974 3.9113115234375 0.42449999999999966 Q 3.9765615234375 0.3869999999999997 4.0545615234375 0.3869999999999997 Q 4.1295615234375 0.3869999999999997 4.1933115234375 0.4222499999999997 Q 4.2570615234375 0.4574999999999997 4.2960615234375 0.5189999999999997 Q 4.3350615234375 0.5804999999999997 4.3350615234375 0.6599999999999997 Q 4.3350615234375 0.7184999999999997 4.3155615234375 0.7432499999999997 Q 4.2960615234375 0.7679999999999997 4.2668115234375 0.7739999999999997 Q 4.2375615234375 0.7799999999999997 4.2045615234375 0.7799999999999997 L 3.8655615234375 0.7799999999999997 L 3.8655615234375 0.8354999999999997 Q 3.8655615234375 0.9254999999999998 3.9300615234375 0.9779999999999998 Q 3.9945615234375 1.0304999999999997 4.0935615234375 1.0304999999999997 Q 4.1535615234375 1.0304999999999997 4.1865615234375 1.0154999999999996 Q 4.2195615234375 1.0004999999999997 4.2383115234375 0.9854999999999997 Q 4.2570615234375 0.9704999999999997 4.2735615234375 0.9704999999999997 Q 4.2855615234375 0.9704999999999997 4.2953115234375 0.9787499999999997 Q 4.3050615234375 0.9869999999999997 4.3103115234375 0.9974999999999997 Q 4.3155615234375 1.0079999999999998 4.3155615234375 1.0169999999999997 Q 4.3155615234375 1.0334999999999996 4.2885615234375 1.0574999999999997 Q 4.2615615234375 1.0814999999999997 4.2105615234375 1.0987499999999997 Q 4.1595615234375 1.1159999999999997 4.0905615234375 1.1159999999999997 M 3.8655615234375 0.7079999999999997 L 4.1655615234375 0.7079999999999997 Q 4.2105615234375 0.7079999999999997 4.2255615234375 0.6982499999999997 Q 4.2405615234375 0.6884999999999997 4.2405615234375 0.6569999999999997 Q 4.2405615234375 0.6089999999999998 4.2173115234375 0.5654999999999997 Q 4.1940615234375 0.5219999999999997 4.1513115234375 0.49499999999999966 Q 4.1085615234375 0.46799999999999964 4.0530615234375 0.46799999999999964 Q 4.0020615234375 0.46799999999999964 3.9593115234375 0.4927499999999997 Q 3.9165615234375 0.5174999999999997 3.8910615234375 0.5587499999999997 Q 3.8655615234375 0.5999999999999996 3.8655615234375 0.6509999999999997 L 3.8655615234375 0.7079999999999997 M 4.5285732421875 1.1054999999999997 Q 4.5090732421875 1.1054999999999997 4.4948232421875 1.0934999999999997 Q 4.4805732421875 1.0814999999999997 4.4805732421875 1.0664999999999998 L 4.4805732421875 0.4319999999999997 Q 4.4805732421875 0.41549999999999965 4.4948232421875 0.4057499999999997 Q 4.5090732421875 0.3959999999999997 4.5285732421875 0.3959999999999997 Q 4.5480732421875 0.3959999999999997 4.5615732421875 0.4057499999999997 Q 4.5750732421875 0.41549999999999965 4.5750732421875 0.4319999999999997 L 4.5750732421875 0.5009999999999997 Q 4.5990732421875 0.4574999999999997 4.6500732421875 0.4222499999999997 Q 4.7010732421875 0.3869999999999997 4.7760732421875 0.3869999999999997 Q 4.8480732421875 0.3869999999999997 4.9088232421875 0.4252499999999997 Q 4.9695732421875 0.4634999999999997 5.0055732421875 0.5264999999999997 Q 5.0415732421875 0.5894999999999997 5.0415732421875 0.6674999999999998 L 5.0415732421875 1.0664999999999998 Q 5.0415732421875 1.0859999999999996 5.0265732421875 1.0957499999999998 Q 5.0115732421875 1.1054999999999997 4.9920732421875 1.1054999999999997 Q 4.9755732421875 1.1054999999999997 4.9598232421875 1.0957499999999998 Q 4.9440732421875 1.0859999999999996 4.9440732421875 1.0664999999999998 L 4.9440732421875 0.6674999999999998 Q 4.9440732421875 0.6194999999999997 4.9185732421875 0.5759999999999997 Q 4.8930732421875 0.5324999999999996 4.8510732421875 0.5047499999999997 Q 4.8090732421875 0.47699999999999965 4.7580732421875 0.47699999999999965 Q 4.7130732421875 0.47699999999999965 4.6718232421875 0.5002499999999996 Q 4.6305732421875 0.5234999999999997 4.6043232421875 0.5654999999999997 Q 4.5780732421875 0.6074999999999997 4.5780732421875 0.6674999999999998 L 4.5780732421875 1.0664999999999998 Q 4.5780732421875 1.0814999999999997 4.5638232421875 1.0934999999999997 Q 4.5495732421875 1.1054999999999997 4.5285732421875 1.1054999999999997 M 5.45710107421875 1.1054999999999997 Q 5.34160107421875 1.1054999999999997 5.28010107421875 1.0529999999999997 Q 5.21860107421875 1.0004999999999997 5.21860107421875 0.8849999999999997 L 5.21860107421875 0.09449999999999958 Q 5.21860107421875 0.07799999999999963 5.23435107421875 0.0682499999999997 Q 5.25010107421875 0.058499999999999774 5.26660107421875 0.058499999999999774 Q 5.28610107421875 0.058499999999999774 5.30110107421875 0.0682499999999997 Q 5.31610107421875 0.07799999999999963 5.31610107421875 0.09449999999999958 L 5.31610107421875 0.3959999999999997 L 5.51110107421875 0.3959999999999997 Q 5.52610107421875 0.3959999999999997 5.53510107421875 0.4079999999999997 Q 5.54410107421875 0.4199999999999997 5.54410107421875 0.43649999999999967 Q 5.54410107421875 0.45299999999999974 5.53510107421875 0.46499999999999975 Q 5.52610107421875 0.47699999999999965 5.51110107421875 0.47699999999999965 L 5.31610107421875 0.47699999999999965 L 5.31610107421875 0.8849999999999997 Q 5.31610107421875 0.9584999999999997 5.34760107421875 0.9877499999999997 Q 5.37910107421875 1.0169999999999997 5.45710107421875 1.0169999999999997 L 5.49910107421875 1.0169999999999997 Q 5.52010107421875 1.0169999999999997 5.53135107421875 1.0297499999999997 Q 5.54260107421875 1.0424999999999998 5.54260107421875 1.0604999999999998 Q 5.54260107421875 1.0784999999999998 5.53135107421875 1.0919999999999996 Q 5.52010107421875 1.1054999999999997 5.49910107421875 1.1054999999999997 L 5.45710107421875 1.1054999999999997 M 5.9086171875 1.1159999999999997 Q 5.8321171875 1.1159999999999997 5.7676171875 1.0762499999999997 Q 5.7031171875 1.0364999999999998 5.6633671875 0.9712499999999997 Q 5.6236171875 0.9059999999999997 5.6236171875 0.8309999999999997 L 5.6236171875 0.6674999999999998 Q 5.6236171875 0.5924999999999997 5.6626171875 0.5287499999999997 Q 5.7016171875 0.46499999999999975 5.7661171875 0.4259999999999997 Q 5.8306171875 0.3869999999999997 5.9086171875 0.3869999999999997 Q 5.9851171875 0.3869999999999997 6.0503671875 0.4252499999999997 Q 6.1156171875 0.4634999999999997 6.1546171874999995 0.5264999999999997 Q 6.1936171875 0.5894999999999997 6.1936171875 0.6674999999999998 L 6.1936171875 0.8309999999999997 Q 6.1936171875 0.9044999999999996 6.1546171874999995 0.9704999999999997 Q 6.1156171875 1.0364999999999998 6.0503671875 1.0762499999999997 Q 5.9851171875 1.1159999999999997 5.9086171875 1.1159999999999997 M 5.9086171875 1.0259999999999998 Q 5.9611171875 1.0259999999999998 6.0031171875 0.9982499999999997 Q 6.0451171875 0.9704999999999997 6.0706171875 0.9254999999999998 Q 6.0961171875 0.8804999999999997 6.0961171875 0.8309999999999997 L 6.0961171875 0.6674999999999998 Q 6.0961171875 0.6194999999999997 6.0713671875 0.5759999999999997 Q 6.0466171875 0.5324999999999996 6.0038671875 0.5047499999999997 Q 5.9611171875 0.47699999999999965 5.9086171875 0.47699999999999965 Q 5.8561171875 0.47699999999999965 5.8141171875 0.5047499999999997 Q 5.7721171875 0.5324999999999996 5.7466171875 0.5759999999999997 Q 5.7211171875 0.6194999999999997 5.7211171875 0.6674999999999998 L 5.7211171875 0.8309999999999997 Q 5.7211171875 0.8804999999999997 5.7466171875 0.9254999999999998 Q 5.7721171875 0.9704999999999997 5.8148671875 0.9982499999999997 Q 5.8576171875 1.0259999999999998 5.9086171875 1.0259999999999998 M 6.4021083984375 1.1054999999999997 Q 6.3826083984375 1.1054999999999997 6.3683583984375 1.0934999999999997 Q 6.3541083984375 1.0814999999999997 6.3541083984375 1.0664999999999998 L 6.3541083984375 0.4319999999999997 Q 6.3541083984375 0.41549999999999965 6.3683583984375 0.4057499999999997 Q 6.3826083984375 0.3959999999999997 6.4021083984375 0.3959999999999997 Q 6.4216083984375 0.3959999999999997 6.4351083984375 0.4057499999999997 Q 6.4486083984375 0.41549999999999965 6.4486083984375 0.4319999999999997 L 6.4486083984375 0.5054999999999997 Q 6.4651083984375 0.4754999999999997 6.4936083984375 0.4484999999999997 Q 6.5221083984375 0.42149999999999965 6.5611083984375 0.40424999999999967 Q 6.6001083984375 0.3869999999999997 6.6496083984375 0.3869999999999997 L 6.7021083984375 0.3869999999999997 Q 6.7186083984375 0.3869999999999997 6.7298583984375 0.3997499999999997 Q 6.7411083984375 0.41249999999999964 6.7411083984375 0.4319999999999997 Q 6.7411083984375 0.44999999999999973 6.7298583984375 0.4634999999999997 Q 6.7186083984375 0.47699999999999965 6.7021083984375 0.47699999999999965 L 6.6496083984375 0.47699999999999965 Q 6.6001083984375 0.47699999999999965 6.5543583984375005 0.5032499999999996 Q 6.5086083984375 0.5294999999999996 6.4801083984375 0.5782499999999997 Q 6.4516083984375 0.6269999999999997 6.4516083984375 0.6959999999999997 L 6.4516083984375 1.0664999999999998 Q 6.4516083984375 1.0814999999999997 6.4373583984375 1.0934999999999997 Q 6.4231083984375 1.1054999999999997 6.4021083984375 1.1054999999999997 M 7.036591552734375 1.1159999999999997 Q 6.966091552734375 1.1159999999999997 6.913591552734375 1.0979999999999996 Q 6.861091552734375 1.0799999999999996 6.831091552734375 1.0552499999999998 Q 6.801091552734375 1.0304999999999997 6.801091552734375 1.0079999999999998 Q 6.801091552734375 0.9974999999999997 6.805591552734375 0.9877499999999997 Q 6.810091552734375 0.9779999999999998 6.818341552734375 0.9704999999999997 Q 6.826591552734375 0.9629999999999996 6.835591552734375 0.9629999999999996 Q 6.852091552734375 0.9629999999999996 6.872341552734375 0.9802499999999997 Q 6.892591552734375 0.9974999999999997 6.929341552734375 1.0154999999999996 Q 6.966091552734375 1.0334999999999996 7.033591552734375 1.0334999999999996 Q 7.119091552734375 1.0334999999999996 7.153591552734375 1.0012499999999998 Q 7.188091552734375 0.9689999999999996 7.188091552734375 0.9269999999999997 Q 7.188091552734375 0.8774999999999997 7.161841552734375 0.8497499999999997 Q 7.135591552734375 0.8219999999999996 7.092841552734375 0.8062499999999997 Q 7.050091552734375 0.7904999999999998 7.002841552734375 0.7777499999999997 Q 6.955591552734375 0.7649999999999997 6.912841552734375 0.7447499999999997 Q 6.870091552734375 0.7244999999999997 6.843841552734375 0.6884999999999997 Q 6.817591552734375 0.6524999999999996 6.817591552734375 0.5909999999999997 Q 6.817591552734375 0.5429999999999997 6.841591552734375 0.4957499999999997 Q 6.865591552734375 0.4484999999999997 6.917341552734375 0.41774999999999973 Q 6.969091552734375 0.3869999999999997 7.054591552734375 0.3869999999999997 Q 7.104091552734375 0.3869999999999997 7.150591552734375 0.39749999999999974 Q 7.197091552734375 0.4079999999999997 7.226341552734375 0.4252499999999997 Q 7.255591552734375 0.44249999999999967 7.255591552734375 0.4604999999999997 Q 7.255591552734375 0.46799999999999964 7.250341552734375 0.47999999999999965 Q 7.245091552734375 0.49199999999999966 7.236091552734375 0.5017499999999997 Q 7.227091552734375 0.5114999999999997 7.215091552734375 0.5114999999999997 Q 7.203091552734375 0.5114999999999997 7.182841552734375 0.5002499999999996 Q 7.162591552734375 0.48899999999999966 7.131091552734375 0.47924999999999973 Q 7.099591552734375 0.4694999999999997 7.056091552734375 0.4694999999999997 Q 7.002091552734375 0.4694999999999997 6.969091552734375 0.48899999999999966 Q 6.936091552734375 0.5084999999999997 6.921091552734375 0.5347499999999997 Q 6.906091552734375 0.5609999999999997 6.906091552734375 0.5864999999999997 Q 6.906091552734375 0.6299999999999997 6.933091552734375 0.6524999999999996 Q 6.960091552734375 0.6749999999999997 7.002841552734375 0.6892499999999997 Q 7.045591552734375 0.7034999999999997 7.092841552734375 0.7162499999999997 Q 7.140091552734375 0.7289999999999996 7.182841552734375 0.7514999999999997 Q 7.225591552734375 0.7739999999999997 7.251841552734375 0.8144999999999998 Q 7.2780915527343755 0.8549999999999998 7.2780915527343755 0.9224999999999997 Q 7.2780915527343755 1.0109999999999997 7.215091552734375 1.0634999999999997 Q 7.152091552734375 1.1159999999999997 7.036591552734375 1.1159999999999997" fill="#212245" fill-rule="nonzero"></path></g><g><path d=" M 0.36982758620689654 1.4835077586206895 Q 0.36982758620689654 1.463680172413793 0.3896551724137931 1.4576456896551722 Q 0.39482758620689656 1.456783620689655 0.4025862068965517 1.4559215517241377 Q 0.4103448275862069 1.4550594827586205 0.41982758620689653 1.4619560344827585 Q 0.4293103448275862 1.4688525862068964 0.4293103448275862 1.4835077586206895 L 0.4293103448275862 1.8973008620689653 Q 0.4293103448275862 1.910231896551724 0.421551724137931 1.917128448275862 Q 0.41120689655172415 1.9257491379310343 0.39956896551724136 1.9257491379310343 Q 0.3879310344827586 1.9257491379310343 0.3788793103448276 1.9188525862068964 Q 0.36982758620689654 1.9119560344827584 0.36982758620689654 1.8973008620689653 L 0.36982758620689654 1.7059215517241377 L 0.12241379310344827 1.7059215517241377 L 0.12241379310344827 1.8973008620689653 Q 0.12241379310344827 1.910231896551724 0.11551724137931034 1.917128448275862 Q 0.10517241379310345 1.9257491379310343 0.09310344827586206 1.9257491379310343 Q 0.08103448275862069 1.9257491379310343 0.07241379310344828 1.9188525862068964 Q 0.06379310344827586 1.9119560344827584 0.06379310344827586 1.8973008620689653 L 0.06379310344827586 1.4835077586206895 Q 0.06379310344827586 1.463680172413793 0.08275862068965517 1.4576456896551722 Q 0.08793103448275862 1.456783620689655 0.09568965517241379 1.4559215517241377 Q 0.10344827586206896 1.4550594827586205 0.11293103448275862 1.4619560344827585 Q 0.12241379310344827 1.4688525862068964 0.12241379310344827 1.4835077586206895 L 0.12241379310344827 1.6567836206896551 L 0.36982758620689654 1.6567836206896551 L 0.36982758620689654 1.4835077586206895 M 0.8357600771147629 1.752473275862069 Q 0.8357600771147629 1.7705767241379309 0.815070421942349 1.7723008620689653 L 0.5788635253906249 1.7723008620689653 Q 0.5823118012526939 1.860231896551724 0.6478290426320042 1.8860939655172413 Q 0.6659324909078663 1.8921284482758618 0.6892083529768318 1.8921284482758618 Q 0.7374842150457974 1.8921284482758618 0.7874842150457974 1.856783620689655 Q 0.8030014564251078 1.8481629310344825 0.8133462840113146 1.8585077586206895 Q 0.8185186978044181 1.863680172413793 0.8167945598733836 1.8688525862068963 Q 0.8167945598733836 1.8809215517241378 0.810760077114763 1.8860939655172413 Q 0.7633462840113145 1.9335077586206895 0.685760077114763 1.9326456896551722 Q 0.6150704219423491 1.9326456896551722 0.571966973666487 1.8869560344827585 Q 0.5236911115975215 1.83954224137931 0.5236911115975215 1.7619560344827585 Q 0.5236911115975215 1.6904043103448274 0.5633462840113146 1.6438525862068964 Q 0.6047255943561423 1.592128448275862 0.6805876633216594 1.592128448275862 Q 0.7564497322871766 1.592128448275862 0.7961049047009698 1.6378181034482757 Q 0.8340359391837284 1.6791974137931032 0.8357600771147629 1.752473275862069 M 0.7848980081492456 1.7369560344827584 Q 0.782311801252694 1.6904043103448274 0.7547255943561422 1.660231896551724 Q 0.7288635253906249 1.6326456896551722 0.6805876633216594 1.6326456896551722 Q 0.6392083529768319 1.6326456896551722 0.6098980081492457 1.6636801724137928 Q 0.5831738702182112 1.6947146551724137 0.5805876633216595 1.7369560344827584 L 0.7848980081492456 1.7369560344827584 M 0.9698345315867456 1.653335344827586 Q 0.9905241867591594 1.592128448275862 1.0603517729660559 1.592128448275862 Q 1.0732828074488145 1.592128448275862 1.0797483246901938 1.5994560344827584 Q 1.0862138419315732 1.606783620689655 1.0862138419315732 1.6149732758620687 Q 1.0862138419315732 1.6231629310344826 1.0797483246901938 1.630490517241379 Q 1.0732828074488145 1.6378181034482757 1.0560414281384698 1.6378181034482757 Q 1.0388000488281248 1.6378181034482757 1.02155866951778 1.6447146551724137 Q 1.0043172902074353 1.6516112068965516 0.9931103936557111 1.6645422413793103 Q 0.9698345315867456 1.692990517241379 0.9698345315867456 1.7395422413793102 L 0.9698345315867456 1.9016112068965516 Q 0.9698345315867456 1.9136801724137928 0.9612138419315732 1.9197146551724136 Q 0.9525931522764008 1.9257491379310343 0.9456966005522629 1.9257491379310343 Q 0.938800048828125 1.9257491379310343 0.9344897040005387 1.9244560344827584 Q 0.9301793591729525 1.9231629310344827 0.9258690143453663 1.9188525862068964 Q 0.9181103936557111 1.9136801724137928 0.9181103936557111 1.9016112068965516 L 0.9181103936557111 1.6240249999999998 Q 0.9181103936557111 1.6128181034482756 0.9258690143453663 1.6054905172413791 Q 0.9336276350350214 1.5981629310344827 0.9452655660695042 1.5981629310344827 Q 0.956903497103987 1.5981629310344827 0.9633690143453663 1.6054905172413791 Q 0.9698345315867456 1.6128181034482756 0.9698345315867456 1.6240249999999998 L 0.9698345315867456 1.653335344827586 M 1.4435556345972522 1.752473275862069 Q 1.4435556345972522 1.7705767241379309 1.4228659794248384 1.7723008620689653 L 1.1866590828731143 1.7723008620689653 Q 1.1901073587351831 1.860231896551724 1.2556246001144935 1.8860939655172413 Q 1.2737280483903555 1.8921284482758618 1.2970039104593212 1.8921284482758618 Q 1.3452797725282866 1.8921284482758618 1.3952797725282866 1.856783620689655 Q 1.410797013907597 1.8481629310344825 1.421141841493804 1.8585077586206895 Q 1.4263142552869073 1.863680172413793 1.4245901173558728 1.8688525862068963 Q 1.4245901173558728 1.8809215517241378 1.418555634597252 1.8860939655172413 Q 1.371141841493804 1.9335077586206895 1.293555634597252 1.9326456896551722 Q 1.2228659794248384 1.9326456896551722 1.1797625311489763 1.8869560344827585 Q 1.1314866690800107 1.83954224137931 1.1314866690800107 1.7619560344827585 Q 1.1314866690800107 1.6904043103448274 1.171141841493804 1.6438525862068964 Q 1.2125211518386314 1.592128448275862 1.2883832208041488 1.592128448275862 Q 1.364245289769666 1.592128448275862 1.403900462183459 1.6378181034482757 Q 1.4418314966662176 1.6791974137931032 1.4435556345972522 1.752473275862069 M 1.392693565631735 1.7369560344827584 Q 1.3901073587351833 1.6904043103448274 1.3625211518386315 1.660231896551724 Q 1.3366590828731142 1.6326456896551722 1.2883832208041488 1.6326456896551722 Q 1.2470039104593211 1.6326456896551722 1.217693565631735 1.6636801724137928 Q 1.1909694277007004 1.6947146551724137 1.1883832208041487 1.7369560344827584 L 1.392693565631735 1.7369560344827584 M 1.7090832940463363 1.4835077586206895 Q 1.7090832940463363 1.4705767241379308 1.7177039837015087 1.4628181034482757 Q 1.7263246733566813 1.4550594827586205 1.7383936388739225 1.4550594827586205 L 1.9694281216325433 1.4550594827586205 Q 1.9823591561153018 1.4550594827586205 1.9879626043911638 1.4628181034482757 Q 1.993566052667026 1.4705767241379308 1.993566052667026 1.479628448275862 Q 1.993566052667026 1.488680172413793 1.9879626043911638 1.4964387931034482 Q 1.9823591561153018 1.5041974137931033 1.9694281216325433 1.5041974137931033 L 1.7694281216325431 1.5041974137931033 L 1.7694281216325431 1.6567836206896551 L 1.9616695009428882 1.6567836206896551 Q 1.9746005354256466 1.6567836206896551 1.9806350181842673 1.6645422413793103 Q 1.986669500942888 1.6723008620689654 1.986669500942888 1.6813525862068963 Q 1.986669500942888 1.6904043103448274 1.9797729492187501 1.697731896551724 Q 1.9728763974946122 1.7050594827586205 1.9616695009428882 1.7050594827586205 L 1.7694281216325431 1.7050594827586205 L 1.7694281216325431 1.8973008620689653 Q 1.7694281216325431 1.910231896551724 1.7625315699084054 1.917128448275862 Q 1.740117776804957 1.9335077586206895 1.7194281216325433 1.9188525862068964 Q 1.7108074319773707 1.9128181034482756 1.7090832940463363 1.8973008620689653 L 1.7090832940463363 1.4835077586206895 M 2.056043322332974 1.7628181034482757 Q 2.056043322332974 1.731783620689655 2.0659571154364222 1.7007491379310342 Q 2.0758709085398706 1.6697146551724136 2.0965605637122846 1.6447146551724137 Q 2.1396640119881467 1.592128448275862 2.2189743568157327 1.592128448275862 Q 2.2982847016433188 1.592128448275862 2.341388149919181 1.6447146551724137 Q 2.3819053912984915 1.6947146551724137 2.3819053912984915 1.7619560344827585 Q 2.3819053912984915 1.8300594827586205 2.341388149919181 1.8791974137931033 Q 2.2982847016433188 1.9326456896551722 2.2189743568157327 1.9326456896551722 Q 2.1396640119881467 1.9326456896551722 2.0965605637122846 1.8791974137931033 Q 2.056043322332974 1.8309215517241377 2.056043322332974 1.7628181034482757 M 2.112077805091595 1.7628181034482757 Q 2.112077805091595 1.7835077586206896 2.117681253367457 1.806783620689655 Q 2.123284701643319 1.8300594827586205 2.1379398740571123 1.8498870689655171 Q 2.167250218884698 1.8921284482758618 2.2189743568157327 1.8921284482758618 Q 2.273284701643319 1.8921284482758618 2.300008839574353 1.8498870689655171 Q 2.3250088395743536 1.810231896551724 2.3250088395743536 1.7619560344827585 Q 2.3250088395743536 1.7119560344827585 2.300008839574353 1.6757491379310343 Q 2.272422632677802 1.6326456896551722 2.2189743568157327 1.6326456896551722 Q 2.167250218884698 1.6326456896551722 2.1379398740571123 1.6757491379310343 Q 2.112077805091595 1.7110939655172412 2.112077805091595 1.7628181034482757 M 2.51337890625 1.653335344827586 Q 2.5340685614224134 1.592128448275862 2.6038961476293103 1.592128448275862 Q 2.6168271821120688 1.592128448275862 2.623292699353448 1.5994560344827584 Q 2.6297582165948272 1.606783620689655 2.6297582165948272 1.6149732758620687 Q 2.6297582165948272 1.6231629310344826 2.623292699353448 1.630490517241379 Q 2.6168271821120688 1.6378181034482757 2.599585802801724 1.6378181034482757 Q 2.5823444234913793 1.6378181034482757 2.5651030441810345 1.6447146551724137 Q 2.5478616648706893 1.6516112068965516 2.5366547683189653 1.6645422413793103 Q 2.51337890625 1.692990517241379 2.51337890625 1.7395422413793102 L 2.51337890625 1.9016112068965516 Q 2.51337890625 1.9136801724137928 2.5047582165948272 1.9197146551724136 Q 2.496137526939655 1.9257491379310343 2.489240975215517 1.9257491379310343 Q 2.482344423491379 1.9257491379310343 2.478034078663793 1.9244560344827584 Q 2.4737237338362066 1.9231629310344827 2.4694133890086207 1.9188525862068964 Q 2.4616547683189656 1.9136801724137928 2.4616547683189656 1.9016112068965516 L 2.4616547683189656 1.6240249999999998 Q 2.4616547683189656 1.6128181034482756 2.4694133890086207 1.6054905172413791 Q 2.477172009698276 1.5981629310344827 2.4888099407327586 1.5981629310344827 Q 2.5004478717672414 1.5981629310344827 2.5069133890086204 1.6054905172413791 Q 2.51337890625 1.6128181034482756 2.51337890625 1.6240249999999998 L 2.51337890625 1.653335344827586 M 3.0590704556169177 1.7257491379310343 L 3.0590704556169177 1.8973008620689653 Q 3.0590704556169177 1.917128448275862 3.0409670073410555 1.9240249999999999 Q 3.0357945935479522 1.9257491379310343 3.0271739038927796 1.9257491379310343 Q 3.0185532142376075 1.9257491379310343 3.0090704556169174 1.9188525862068964 Q 2.999587696996228 1.9119560344827584 2.999587696996228 1.8973008620689653 L 2.999587696996228 1.7266112068965516 L 2.847001490099676 1.4947146551724138 Q 2.84269114527209 1.4895422413793102 2.84269114527209 1.4835077586206895 Q 2.84269114527209 1.4774732758620688 2.8452773521686416 1.4723008620689653 Q 2.8478635590651935 1.467128448275862 2.853035972858297 1.4628181034482757 Q 2.863380800444504 1.4550594827586205 2.873725628030711 1.4550594827586205 Q 2.89269114527209 1.4550594827586205 2.9013118349272626 1.4705767241379308 L 3.0332083866514004 1.6800594827586206 L 3.034070455616918 1.6800594827586206 L 3.166829076306573 1.4688525862068964 Q 3.175449765961745 1.4550594827586205 3.1909670073410554 1.4550594827586205 Q 3.2082083866514006 1.4550594827586205 3.2151049383755383 1.4688525862068964 Q 3.218553214237607 1.4731629310344827 3.218553214237607 1.4774732758620688 Q 3.218553214237607 1.4826456896551723 3.214242869410021 1.4895422413793102 L 3.0590704556169177 1.7257491379310343 M 3.2681096570245143 1.7628181034482757 Q 3.2681096570245143 1.731783620689655 3.2780234501279626 1.7007491379310342 Q 3.287937243231411 1.6697146551724136 3.308626898403825 1.6447146551724137 Q 3.351730346679687 1.592128448275862 3.431040691507273 1.592128448275862 Q 3.510351036334859 1.592128448275862 3.553454484610721 1.6447146551724137 Q 3.593971725990032 1.6947146551724137 3.593971725990032 1.7619560344827585 Q 3.593971725990032 1.8300594827586205 3.553454484610721 1.8791974137931033 Q 3.510351036334859 1.9326456896551722 3.431040691507273 1.9326456896551722 Q 3.351730346679687 1.9326456896551722 3.308626898403825 1.8791974137931033 Q 3.2681096570245143 1.8309215517241377 3.2681096570245143 1.7628181034482757 M 3.3241441397831353 1.7628181034482757 Q 3.3241441397831353 1.7835077586206896 3.3297475880589973 1.806783620689655 Q 3.3353510363348593 1.8300594827586205 3.3500062087486526 1.8498870689655171 Q 3.3793165535762384 1.8921284482758618 3.431040691507273 1.8921284482758618 Q 3.485351036334859 1.8921284482758618 3.5120751742658936 1.8498870689655171 Q 3.537075174265894 1.810231896551724 3.537075174265894 1.7619560344827585 Q 3.537075174265894 1.7119560344827585 3.5120751742658936 1.6757491379310343 Q 3.484488967369342 1.6326456896551722 3.431040691507273 1.6326456896551722 Q 3.3793165535762384 1.6326456896551722 3.3500062087486526 1.6757491379310343 Q 3.3241441397831353 1.7110939655172412 3.3241441397831353 1.7628181034482757 M 3.953031447838092 1.9016112068965516 Q 3.953031447838092 1.9136801724137928 3.943979723700161 1.9197146551724136 Q 3.93492799956223 1.9257491379310343 3.9284624823208505 1.9257491379310343 Q 3.921996965079471 1.9257491379310343 3.9168245512863678 1.9244560344827584 Q 3.9116521374932645 1.9231629310344827 3.908203861631195 1.9188525862068964 Q 3.899583171976023 1.9128181034482756 3.899583171976023 1.9016112068965516 L 3.899583171976023 1.8714387931034482 Q 3.8788935168036094 1.917128448275862 3.823721103010506 1.928335344827586 Q 3.806479723700161 1.9326456896551722 3.7866521374932645 1.9326456896551722 Q 3.766824551286368 1.9326456896551722 3.745272827148437 1.9257491379310343 Q 3.7237211030105057 1.9188525862068964 3.7082038616311954 1.903335344827586 Q 3.673721103010506 1.8705767241379307 3.673721103010506 1.8050594827586206 L 3.673721103010506 1.6240249999999998 Q 3.673721103010506 1.6119560344827584 3.681479723700161 1.6050594827586204 Q 3.6892383443898162 1.5981629310344827 3.699583171976023 1.5981629310344827 Q 3.70992799956223 1.5981629310344827 3.717686620251885 1.6050594827586204 Q 3.72544524094154 1.6119560344827584 3.72544524094154 1.6240249999999998 L 3.72544524094154 1.8093698275862067 Q 3.72544524094154 1.8559215517241379 3.7444107581829194 1.8740249999999998 Q 3.763376275424299 1.8921284482758618 3.8013073099070573 1.8921284482758618 Q 3.865100413355333 1.8921284482758618 3.889238344389816 1.8404043103448273 Q 3.8987211030105056 1.8223008620689654 3.899583171976023 1.7990249999999999 L 3.899583171976023 1.6240249999999998 Q 3.899583171976023 1.6119560344827584 3.908203861631195 1.6050594827586204 Q 3.9168245512863678 1.5981629310344827 3.927169378872575 1.5981629310344827 Q 3.937514206458782 1.5981629310344827 3.945272827148437 1.6050594827586204 Q 3.953031447838092 1.6119560344827584 3.953031447838092 1.6240249999999998 L 3.953031447838092 1.9016112068965516" fill="#64c6c4" fill-rule="nonzero"></path></g></g><defs><clipPath id="SvgjsClipPath4691"><path d=" M -4.9733010188811235 -1.0568681662525932 h 4.573301018881123 v 4.039485470436221 h -4.573301018881123 Z"></path></clipPath><clipPath id="SvgjsClipPath46862a2264f6-7b47-4b87-83cd-0b9f7012f7f8"><path d=" M -4.9733010188811235 -1.0568681662525932 L -0.40000000000000036 -1.0568681662525932 L -0.40000000000000036 2.9826173041836275 L -4.9733010188811235 2.9826173041836275 Z"></path></clipPath><linearGradient id="gradient-660fd3fc-759f-4305-a9c3-0a78ddbcda33_0" x1="0" x2="1" y1="0" y2="1"><stop stop-color="#64c6c4" offset="0"></stop><stop stop-color="#212245" offset="1"></stop></linearGradient></defs></svg>